<mxfile host="65bd71144e">
    <diagram id="i-uW8yBp0_7IIde-QJ6n" name="Page-1">
        <mxGraphModel dx="1204" dy="530" grid="1" gridSize="10" guides="1" tooltips="1" connect="1" arrows="1" fold="1" page="1" pageScale="1" pageWidth="3300" pageHeight="2339" background="none" math="1" shadow="0">
            <root>
                <UserObject label="" animation="show iT1mUx-9dt7Okqp-3R7k-16 fade&#10;wait 3000&#10;show iT1mUx-9dt7Okqp-3R7k-17 fade&#10;show iT1mUx-9dt7Okqp-3R7k-13 fade&#10;wait 3000&#10;show iT1mUx-9dt7Okqp-3R7k-1 fade&#10;show ThqwIy15VdaGmByljwmU-1 fade&#10;wait 3000&#10;show iT1mUx-9dt7Okqp-3R7k-10 fade&#10;show iT1mUx-9dt7Okqp-3R7k-11 fade&#10;show iT1mUx-9dt7Okqp-3R7k-9 fade&#10;show iT1mUx-9dt7Okqp-3R7k-72 fade&#10;show iT1mUx-9dt7Okqp-3R7k-26 fade&#10;show iT1mUx-9dt7Okqp-3R7k-24 fade&#10;show iT1mUx-9dt7Okqp-3R7k-23 fade&#10;wait 3000&#10;show iT1mUx-9dt7Okqp-3R7k-14 fade&#10;show iT1mUx-9dt7Okqp-3R7k-2 fade&#10;show iT1mUx-9dt7Okqp-3R7k-3 fade&#10;show iT1mUx-9dt7Okqp-3R7k-12 fade&#10;wait 3000&#10;show iT1mUx-9dt7Okqp-3R7k-15 fade&#10;show iT1mUx-9dt7Okqp-3R7k-18 fade&#10;show iT1mUx-9dt7Okqp-3R7k-20 fade&#10;show iT1mUx-9dt7Okqp-3R7k-21 fade&#10;wait 3000&#10;show iT1mUx-9dt7Okqp-3R7k-27 fade&#10;show iT1mUx-9dt7Okqp-3R7k-43 fade&#10;show iT1mUx-9dt7Okqp-3R7k-36 fade&#10;show iT1mUx-9dt7Okqp-3R7k-34 fade&#10;show iT1mUx-9dt7Okqp-3R7k-35 fade&#10;show iT1mUx-9dt7Okqp-3R7k-51 fade&#10;wait 5000&#10;show iT1mUx-9dt7Okqp-3R7k-37 fade&#10;show iT1mUx-9dt7Okqp-3R7k-38 fade&#10;show iT1mUx-9dt7Okqp-3R7k-44 fade&#10;show iT1mUx-9dt7Okqp-3R7k-40 fade&#10;wait 3000&#10;show iT1mUx-9dt7Okqp-3R7k-52 fade&#10;show iT1mUx-9dt7Okqp-3R7k-48 fade&#10;show iT1mUx-9dt7Okqp-3R7k-42 fade&#10;wait 3000&#10;show iT1mUx-9dt7Okqp-3R7k-61 fade&#10;show iT1mUx-9dt7Okqp-3R7k-55 fade&#10;show iT1mUx-9dt7Okqp-3R7k-68 fade&#10;show iT1mUx-9dt7Okqp-3R7k-69 fade&#10;show iT1mUx-9dt7Okqp-3R7k-65 fade&#10;show iT1mUx-9dt7Okqp-3R7k-64 fade&#10;show iT1mUx-9dt7Okqp-3R7k-66 fade&#10;show iT1mUx-9dt7Okqp-3R7k-67 fade&#10;show iT1mUx-9dt7Okqp-3R7k-50 fade&#10;wait 5000&#10;show iT1mUx-9dt7Okqp-3R7k-71 fade&#10;show iT1mUx-9dt7Okqp-3R7k-70 fade&#10;wait 10000&#10;" id="0">
                    <mxCell/>
                </UserObject>
                <mxCell id="1" parent="0"/>
                <mxCell id="iT1mUx-9dt7Okqp-3R7k-9" style="edgeStyle=orthogonalEdgeStyle;orthogonalLoop=1;jettySize=auto;html=1;rounded=1;strokeWidth=3;" parent="1" source="ThqwIy15VdaGmByljwmU-1" target="iT1mUx-9dt7Okqp-3R7k-1" edge="1">
                    <mxGeometry relative="1" as="geometry">
                        <Array as="points">
                            <mxPoint x="720" y="810"/>
                        </Array>
                    </mxGeometry>
                </mxCell>
                <mxCell id="iT1mUx-9dt7Okqp-3R7k-70" style="edgeStyle=orthogonalEdgeStyle;orthogonalLoop=1;jettySize=auto;html=1;fontSize=10;startArrow=none;startFill=0;endArrow=classic;endFill=1;entryX=0.5;entryY=0;entryDx=0;entryDy=0;rounded=1;strokeColor=#FFFFFF;strokeWidth=3;" parent="1" source="ThqwIy15VdaGmByljwmU-1" target="iT1mUx-9dt7Okqp-3R7k-71" edge="1">
                    <mxGeometry relative="1" as="geometry">
                        <mxPoint x="865" y="910" as="targetPoint"/>
                    </mxGeometry>
                </mxCell>
                <mxCell id="ThqwIy15VdaGmByljwmU-1" value="$$W_0 = \frac{W_{crew} + W_{payload}}{1-(\frac{W_f}{W_0})-(\frac{W_e}{W_0})}$$" style="rounded=0;whiteSpace=wrap;html=1;fillColor=#f8cecc;strokeColor=#b85450;dashed=1;fontColor=#000000;" parent="1" vertex="1">
                    <mxGeometry x="707.5" y="790" width="170" height="60" as="geometry"/>
                </mxCell>
                <mxCell id="iT1mUx-9dt7Okqp-3R7k-72" style="edgeStyle=orthogonalEdgeStyle;rounded=1;orthogonalLoop=1;jettySize=auto;html=1;exitX=1;exitY=0.5;exitDx=0;exitDy=0;fontSize=12;startArrow=none;startFill=0;endArrow=classic;endFill=1;strokeColor=#FFFFFF;strokeWidth=3;" parent="1" source="iT1mUx-9dt7Okqp-3R7k-1" edge="1">
                    <mxGeometry relative="1" as="geometry">
                        <mxPoint x="865" y="790" as="targetPoint"/>
                        <Array as="points">
                            <mxPoint x="865" y="630"/>
                        </Array>
                    </mxGeometry>
                </mxCell>
                <mxCell id="iT1mUx-9dt7Okqp-3R7k-1" value="$$\frac{W_e}{W_0} = AW_0^{C}$$" style="rounded=0;whiteSpace=wrap;html=1;fillColor=#f8cecc;strokeColor=#b85450;dashed=1;fontColor=#000000;" parent="1" vertex="1">
                    <mxGeometry x="740" y="610" width="105" height="40" as="geometry"/>
                </mxCell>
                <mxCell id="iT1mUx-9dt7Okqp-3R7k-3" style="edgeStyle=orthogonalEdgeStyle;orthogonalLoop=1;jettySize=auto;html=1;entryX=0.25;entryY=0;entryDx=0;entryDy=0;rounded=1;strokeWidth=3;" parent="1" source="iT1mUx-9dt7Okqp-3R7k-2" target="iT1mUx-9dt7Okqp-3R7k-1" edge="1">
                    <mxGeometry relative="1" as="geometry">
                        <Array as="points">
                            <mxPoint x="720" y="560"/>
                            <mxPoint x="766" y="560"/>
                            <mxPoint x="766" y="610"/>
                        </Array>
                    </mxGeometry>
                </mxCell>
                <mxCell id="iT1mUx-9dt7Okqp-3R7k-2" value="Initial Takeoff Weight Estimate" style="rounded=0;whiteSpace=wrap;html=1;dashed=1;fillColor=#d5e8d4;strokeColor=#82b366;fontColor=#000000;" parent="1" vertex="1">
                    <mxGeometry x="670" y="450" width="100" height="60" as="geometry"/>
                </mxCell>
                <mxCell id="iT1mUx-9dt7Okqp-3R7k-10" value="$$\frac{W_e}{W_0}$$" style="text;html=1;align=center;verticalAlign=middle;resizable=0;points=[];autosize=1;strokeColor=none;fillColor=none;" parent="1" vertex="1">
                    <mxGeometry x="820" y="710" width="130" height="20" as="geometry"/>
                </mxCell>
                <mxCell id="iT1mUx-9dt7Okqp-3R7k-11" value="$$W_0$$" style="text;html=1;align=center;verticalAlign=middle;resizable=0;points=[];autosize=1;strokeColor=none;fillColor=none;" parent="1" vertex="1">
                    <mxGeometry x="670" y="710" width="70" height="20" as="geometry"/>
                </mxCell>
                <mxCell id="iT1mUx-9dt7Okqp-3R7k-12" value="$$W_0$$" style="text;html=1;align=center;verticalAlign=middle;resizable=0;points=[];autosize=1;strokeColor=none;fillColor=none;" parent="1" vertex="1">
                    <mxGeometry x="670" y="530" width="70" height="20" as="geometry"/>
                </mxCell>
                <mxCell id="iT1mUx-9dt7Okqp-3R7k-14" style="edgeStyle=orthogonalEdgeStyle;rounded=1;orthogonalLoop=1;jettySize=auto;html=1;entryX=0.5;entryY=0;entryDx=0;entryDy=0;strokeColor=#FFFFFF;strokeWidth=3;" parent="1" source="iT1mUx-9dt7Okqp-3R7k-13" target="iT1mUx-9dt7Okqp-3R7k-2" edge="1">
                    <mxGeometry relative="1" as="geometry">
                        <Array as="points">
                            <mxPoint x="790" y="410"/>
                            <mxPoint x="720" y="410"/>
                        </Array>
                    </mxGeometry>
                </mxCell>
                <mxCell id="iT1mUx-9dt7Okqp-3R7k-18" style="edgeStyle=orthogonalEdgeStyle;rounded=1;orthogonalLoop=1;jettySize=auto;html=1;entryX=0.5;entryY=0;entryDx=0;entryDy=0;strokeColor=#FFFFFF;strokeWidth=3;" parent="1" source="iT1mUx-9dt7Okqp-3R7k-13" target="iT1mUx-9dt7Okqp-3R7k-15" edge="1">
                    <mxGeometry relative="1" as="geometry">
                        <Array as="points">
                            <mxPoint x="790" y="410"/>
                            <mxPoint x="865" y="410"/>
                        </Array>
                    </mxGeometry>
                </mxCell>
                <mxCell id="iT1mUx-9dt7Okqp-3R7k-37" style="edgeStyle=orthogonalEdgeStyle;rounded=1;orthogonalLoop=1;jettySize=auto;html=1;entryX=0;entryY=0.5;entryDx=0;entryDy=0;startArrow=none;startFill=0;endArrow=classic;endFill=1;strokeColor=#FFFFFF;strokeWidth=3;" parent="1" source="iT1mUx-9dt7Okqp-3R7k-13" target="iT1mUx-9dt7Okqp-3R7k-34" edge="1">
                    <mxGeometry relative="1" as="geometry">
                        <Array as="points">
                            <mxPoint x="790" y="410"/>
                            <mxPoint x="960" y="410"/>
                            <mxPoint x="960" y="595"/>
                        </Array>
                    </mxGeometry>
                </mxCell>
                <mxCell id="iT1mUx-9dt7Okqp-3R7k-52" style="edgeStyle=orthogonalEdgeStyle;rounded=1;orthogonalLoop=1;jettySize=auto;html=1;entryX=0;entryY=0.5;entryDx=0;entryDy=0;fontSize=9;startArrow=none;startFill=0;endArrow=classic;endFill=1;strokeColor=#FFFFFF;strokeWidth=3;" parent="1" source="iT1mUx-9dt7Okqp-3R7k-13" target="iT1mUx-9dt7Okqp-3R7k-42" edge="1">
                    <mxGeometry relative="1" as="geometry"/>
                </mxCell>
                <mxCell id="iT1mUx-9dt7Okqp-3R7k-13" value="Select a Baseline Configuration" style="rounded=0;whiteSpace=wrap;html=1;dashed=1;fillColor=#dae8fc;strokeColor=#6c8ebf;fontColor=#000000;" parent="1" vertex="1">
                    <mxGeometry x="730" y="320" width="120" height="60" as="geometry"/>
                </mxCell>
                <mxCell id="iT1mUx-9dt7Okqp-3R7k-20" style="edgeStyle=orthogonalEdgeStyle;rounded=1;orthogonalLoop=1;jettySize=auto;html=1;entryX=0.75;entryY=0;entryDx=0;entryDy=0;strokeColor=#FFFFFF;strokeWidth=3;" parent="1" source="iT1mUx-9dt7Okqp-3R7k-15" target="iT1mUx-9dt7Okqp-3R7k-1" edge="1">
                    <mxGeometry relative="1" as="geometry"/>
                </mxCell>
                <mxCell id="iT1mUx-9dt7Okqp-3R7k-15" value="Regression analysis on empty weight fractions" style="rounded=0;whiteSpace=wrap;html=1;dashed=1;fillColor=#d5e8d4;strokeColor=#82b366;fontColor=#000000;" parent="1" vertex="1">
                    <mxGeometry x="805" y="450" width="120" height="60" as="geometry"/>
                </mxCell>
                <mxCell id="iT1mUx-9dt7Okqp-3R7k-17" style="edgeStyle=orthogonalEdgeStyle;rounded=1;orthogonalLoop=1;jettySize=auto;html=1;strokeColor=#FFFFFF;strokeWidth=3;" parent="1" source="iT1mUx-9dt7Okqp-3R7k-16" target="iT1mUx-9dt7Okqp-3R7k-13" edge="1">
                    <mxGeometry relative="1" as="geometry"/>
                </mxCell>
                <mxCell id="iT1mUx-9dt7Okqp-3R7k-23" style="edgeStyle=orthogonalEdgeStyle;rounded=1;orthogonalLoop=1;jettySize=auto;html=1;entryX=0;entryY=0.5;entryDx=0;entryDy=0;strokeColor=#FFFFFF;strokeWidth=3;" parent="1" source="iT1mUx-9dt7Okqp-3R7k-16" target="ThqwIy15VdaGmByljwmU-1" edge="1">
                    <mxGeometry relative="1" as="geometry">
                        <mxPoint x="780" y="830" as="targetPoint"/>
                        <Array as="points">
                            <mxPoint x="650" y="220"/>
                            <mxPoint x="650" y="820"/>
                        </Array>
                    </mxGeometry>
                </mxCell>
                <mxCell id="iT1mUx-9dt7Okqp-3R7k-44" style="edgeStyle=orthogonalEdgeStyle;rounded=1;orthogonalLoop=1;jettySize=auto;html=1;startArrow=none;startFill=0;endArrow=classic;endFill=1;entryX=0.873;entryY=-0.004;entryDx=0;entryDy=0;entryPerimeter=0;strokeColor=#FFFFFF;strokeWidth=3;" parent="1" target="iT1mUx-9dt7Okqp-3R7k-34" edge="1">
                    <mxGeometry relative="1" as="geometry">
                        <Array as="points">
                            <mxPoint x="1220" y="320"/>
                        </Array>
                        <mxPoint x="1140" y="320" as="sourcePoint"/>
                    </mxGeometry>
                </mxCell>
                <mxCell id="iT1mUx-9dt7Okqp-3R7k-55" style="edgeStyle=orthogonalEdgeStyle;rounded=1;orthogonalLoop=1;jettySize=auto;html=1;fontSize=9;startArrow=none;startFill=0;endArrow=classic;endFill=1;strokeColor=#FFFFFF;strokeWidth=3;" parent="1" source="iT1mUx-9dt7Okqp-3R7k-16" target="iT1mUx-9dt7Okqp-3R7k-50" edge="1">
                    <mxGeometry relative="1" as="geometry"/>
                </mxCell>
                <mxCell id="iT1mUx-9dt7Okqp-3R7k-16" value="Customer (Errikos) provides Target Design Spec)" style="rounded=1;whiteSpace=wrap;html=1;dashed=1;fillColor=#ffe6cc;strokeColor=#d79b00;fontColor=#000000;" parent="1" vertex="1">
                    <mxGeometry x="870" y="190" width="120" height="60" as="geometry"/>
                </mxCell>
                <mxCell id="iT1mUx-9dt7Okqp-3R7k-21" value="$$A, C$$" style="text;html=1;align=center;verticalAlign=middle;resizable=0;points=[];autosize=1;strokeColor=none;fillColor=none;" parent="1" vertex="1">
                    <mxGeometry x="850" y="530" width="70" height="20" as="geometry"/>
                </mxCell>
                <mxCell id="iT1mUx-9dt7Okqp-3R7k-24" value="$$W_{crew}, W_{payload}&lt;br&gt;$$" style="text;html=1;align=center;verticalAlign=middle;resizable=0;points=[];autosize=1;strokeColor=none;fillColor=none;" parent="1" vertex="1">
                    <mxGeometry x="655" y="190" width="150" height="30" as="geometry"/>
                </mxCell>
                <mxCell id="iT1mUx-9dt7Okqp-3R7k-43" style="edgeStyle=orthogonalEdgeStyle;rounded=1;orthogonalLoop=1;jettySize=auto;html=1;entryX=1;entryY=0.5;entryDx=0;entryDy=0;startArrow=none;startFill=0;endArrow=classic;endFill=1;strokeColor=#FFFFFF;strokeWidth=3;" parent="1" source="iT1mUx-9dt7Okqp-3R7k-27" target="ThqwIy15VdaGmByljwmU-1" edge="1">
                    <mxGeometry relative="1" as="geometry"/>
                </mxCell>
                <mxCell id="iT1mUx-9dt7Okqp-3R7k-27" value="$$\frac{W_f}{W_0} = 1.01\left(1-\prod_{i=1}^{n}(\frac{W_i}{W_{i-1}})\right)$$" style="rounded=0;whiteSpace=wrap;html=1;dashed=1;fillColor=#d5e8d4;strokeColor=#82b366;fontSize=10;fontColor=#000000;" parent="1" vertex="1">
                    <mxGeometry x="1060" y="790" width="200" height="60" as="geometry"/>
                </mxCell>
                <mxCell id="iT1mUx-9dt7Okqp-3R7k-35" style="edgeStyle=orthogonalEdgeStyle;rounded=1;orthogonalLoop=1;jettySize=auto;html=1;startArrow=none;startFill=0;endArrow=classic;endFill=1;entryX=0.5;entryY=0;entryDx=0;entryDy=0;exitX=0.5;exitY=1;exitDx=0;exitDy=0;strokeColor=#FFFFFF;strokeWidth=4;" parent="1" source="iT1mUx-9dt7Okqp-3R7k-34" target="iT1mUx-9dt7Okqp-3R7k-27" edge="1">
                    <mxGeometry relative="1" as="geometry">
                        <mxPoint x="1160" y="790" as="targetPoint"/>
                        <Array as="points">
                            <mxPoint x="1160" y="760"/>
                            <mxPoint x="1160" y="760"/>
                        </Array>
                    </mxGeometry>
                </mxCell>
                <mxCell id="iT1mUx-9dt7Okqp-3R7k-64" style="edgeStyle=orthogonalEdgeStyle;rounded=1;orthogonalLoop=1;jettySize=auto;html=1;entryX=0.701;entryY=0.997;entryDx=0;entryDy=0;fontSize=12;startArrow=none;startFill=0;endArrow=classic;endFill=1;entryPerimeter=0;strokeColor=#FFFFFF;strokeWidth=3;" parent="1" source="iT1mUx-9dt7Okqp-3R7k-34" target="iT1mUx-9dt7Okqp-3R7k-50" edge="1">
                    <mxGeometry relative="1" as="geometry"/>
                </mxCell>
                <mxCell id="iT1mUx-9dt7Okqp-3R7k-34" value="$$\frac{W_i}{W_{i-1}} = e^{\frac{-Rc}{V(L/D)}};&lt;br&gt;\\\\&lt;br&gt;\frac{W_{i}}{W_{i-1}} = e^{\frac{-Ec}{(L/D)}}$$" style="rounded=0;whiteSpace=wrap;html=1;dashed=1;fillColor=#f8cecc;strokeColor=#b85450;fontColor=#000000;" parent="1" vertex="1">
                    <mxGeometry x="1080" y="550" width="160" height="90" as="geometry"/>
                </mxCell>
                <mxCell id="iT1mUx-9dt7Okqp-3R7k-36" value="$$\frac{W_f}{W_0}$$" style="text;html=1;align=center;verticalAlign=middle;resizable=0;points=[];autosize=1;strokeColor=none;fillColor=none;" parent="1" vertex="1">
                    <mxGeometry x="910" y="780" width="130" height="20" as="geometry"/>
                </mxCell>
                <mxCell id="iT1mUx-9dt7Okqp-3R7k-38" value="$$c$$" style="text;html=1;align=center;verticalAlign=middle;resizable=0;points=[];autosize=1;strokeColor=none;fillColor=none;rotation=0;" parent="1" vertex="1">
                    <mxGeometry x="1000" y="570" width="50" height="20" as="geometry"/>
                </mxCell>
                <mxCell id="iT1mUx-9dt7Okqp-3R7k-40" value="$$V, R, E$$" style="text;html=1;align=center;verticalAlign=middle;resizable=0;points=[];autosize=1;strokeColor=none;fillColor=none;" parent="1" vertex="1">
                    <mxGeometry x="1150" y="300" width="80" height="20" as="geometry"/>
                </mxCell>
                <mxCell id="iT1mUx-9dt7Okqp-3R7k-61" style="edgeStyle=orthogonalEdgeStyle;rounded=1;orthogonalLoop=1;jettySize=auto;html=1;entryX=0;entryY=0.5;entryDx=0;entryDy=0;fontSize=12;startArrow=none;startFill=0;endArrow=classic;endFill=1;exitX=0.5;exitY=1;exitDx=0;exitDy=0;strokeColor=#FFFFFF;strokeWidth=3;" parent="1" source="iT1mUx-9dt7Okqp-3R7k-42" target="iT1mUx-9dt7Okqp-3R7k-50" edge="1">
                    <mxGeometry relative="1" as="geometry">
                        <Array as="points">
                            <mxPoint x="1025" y="425"/>
                        </Array>
                    </mxGeometry>
                </mxCell>
                <mxCell id="iT1mUx-9dt7Okqp-3R7k-42" value="$$\frac{L}{D}\rvert_{max} = K_{LD}\sqrt{A_{wetted}}$$" style="whiteSpace=wrap;html=1;rounded=0;dashed=1;fillColor=#d5e8d4;strokeColor=#82b366;fontSize=10;fontColor=#000000;" parent="1" vertex="1">
                    <mxGeometry x="960" y="320" width="130" height="60" as="geometry"/>
                </mxCell>
                <mxCell id="iT1mUx-9dt7Okqp-3R7k-48" value="&lt;font style=&quot;font-size: 13px&quot;&gt;$$K_{LD}, A_{wetted}$$&lt;/font&gt;" style="text;html=1;align=center;verticalAlign=middle;resizable=0;points=[];autosize=1;strokeColor=none;fillColor=none;" parent="1" vertex="1">
                    <mxGeometry x="820" y="360" width="160" height="20" as="geometry"/>
                </mxCell>
                <mxCell id="iT1mUx-9dt7Okqp-3R7k-65" style="edgeStyle=orthogonalEdgeStyle;orthogonalLoop=1;jettySize=auto;html=1;entryX=0.217;entryY=-0.002;entryDx=0;entryDy=0;fontSize=12;startArrow=none;startFill=0;endArrow=classic;endFill=1;exitX=0.25;exitY=1;exitDx=0;exitDy=0;entryPerimeter=0;curved=1;strokeColor=#FFFFFF;strokeWidth=3;" parent="1" source="iT1mUx-9dt7Okqp-3R7k-50" target="iT1mUx-9dt7Okqp-3R7k-34" edge="1">
                    <mxGeometry relative="1" as="geometry"/>
                </mxCell>
                <mxCell id="iT1mUx-9dt7Okqp-3R7k-50" value="Ideal Lift Drag for flight segment" style="whiteSpace=wrap;html=1;rounded=0;dashed=1;fontSize=12;fillColor=#f8cecc;strokeColor=#b85450;fontColor=#000000;" parent="1" vertex="1">
                    <mxGeometry x="1090" y="400" width="100" height="50" as="geometry"/>
                </mxCell>
                <mxCell id="iT1mUx-9dt7Okqp-3R7k-51" value="&lt;span style=&quot;font-size: 12px&quot;&gt;$$\prod_{i=1}^n(\frac{W_i}{W_{i-1}})$$&lt;/span&gt;" style="text;html=1;align=center;verticalAlign=middle;resizable=0;points=[];autosize=1;strokeColor=none;fillColor=none;fontSize=9;" parent="1" vertex="1">
                    <mxGeometry x="1010" y="710" width="220" height="20" as="geometry"/>
                </mxCell>
                <mxCell id="iT1mUx-9dt7Okqp-3R7k-66" value="Repeat for&lt;br&gt;all &lt;br&gt;segments" style="text;html=1;align=center;verticalAlign=middle;resizable=0;points=[];autosize=1;strokeColor=none;fillColor=none;fontSize=9;" parent="1" vertex="1">
                    <mxGeometry x="1155" y="480" width="60" height="40" as="geometry"/>
                </mxCell>
                <mxCell id="iT1mUx-9dt7Okqp-3R7k-67" value="$$\frac{L}{D}$$" style="text;html=1;align=center;verticalAlign=middle;resizable=0;points=[];autosize=1;strokeColor=none;fillColor=none;fontSize=9;" parent="1" vertex="1">
                    <mxGeometry x="1060" y="490" width="80" height="20" as="geometry"/>
                </mxCell>
                <mxCell id="iT1mUx-9dt7Okqp-3R7k-68" value="Target Mission&lt;br style=&quot;font-size: 11px;&quot;&gt;Profile" style="text;html=1;align=center;verticalAlign=middle;resizable=0;points=[];autosize=1;strokeColor=none;fillColor=none;fontSize=11;" parent="1" vertex="1">
                    <mxGeometry x="1065" y="190" width="90" height="30" as="geometry"/>
                </mxCell>
                <mxCell id="iT1mUx-9dt7Okqp-3R7k-69" value="$$\frac{L}{D}\rvert_{max}$$" style="text;html=1;align=center;verticalAlign=middle;resizable=0;points=[];autosize=1;strokeColor=none;fillColor=none;fontSize=9;" parent="1" vertex="1">
                    <mxGeometry x="970" y="430" width="130" height="20" as="geometry"/>
                </mxCell>
                <mxCell id="iT1mUx-9dt7Okqp-3R7k-71" value="Converged Total Aircraft Weight" style="rounded=1;whiteSpace=wrap;html=1;dashed=1;fontSize=12;fillColor=#ffe6cc;strokeColor=#d79b00;fontColor=#000000;" parent="1" vertex="1">
                    <mxGeometry x="870" y="910" width="120" height="60" as="geometry"/>
                </mxCell>
            </root>
        </mxGraphModel>
    </diagram>
</mxfile>